<svg width="54" height="55" viewBox="0 0 54 55" fill="none" xmlns="http://www.w3.org/2000/svg">
<g clip-path="url(#clip0_1_198)">
<path d="M26.9162 54.3325C41.7817 54.3325 53.8325 42.2817 53.8325 27.4162C53.8325 12.5508 41.7817 0.5 26.9162 0.5C12.0508 0.5 0 12.5508 0 27.4162C0 42.2817 12.0508 54.3325 26.9162 54.3325Z" fill="#49E670"/>
<path d="M35.9194 32.4448C35.5328 33.3658 33.9866 34.287 32.8269 34.4711C32.0537 34.6554 30.8941 34.8396 27.415 33.3658C22.7763 31.5237 19.877 27.1024 19.6838 26.9182C19.4905 26.5498 17.9442 24.5234 17.9442 22.497C17.9442 20.4706 19.1039 19.3653 19.4905 18.9969C19.877 18.6284 20.4569 18.4442 21.0367 18.4442C21.23 18.4442 21.4233 18.4442 21.6166 18.4442C22.0031 18.4442 22.3897 18.4442 22.583 19.1811C22.9695 20.1022 23.9359 22.1286 23.9359 22.3128C24.1292 22.497 24.1292 22.8654 23.9359 23.0497C23.7427 23.4181 23.7427 23.4181 23.3561 23.7865C23.1628 23.9707 22.9695 24.155 22.7763 24.5234C22.583 24.7076 22.3897 25.0761 22.583 25.4445C22.7763 25.8129 23.7427 27.2867 25.0956 28.392C26.8352 29.8657 28.1881 30.2342 28.768 30.6026C29.1546 30.7868 29.5411 30.7868 29.9277 30.4184C30.3142 30.0499 30.7008 29.4973 31.0874 28.9446C31.4739 28.5762 31.8606 28.392 32.247 28.5762C32.6336 28.7604 34.953 29.6815 35.3396 30.0499C35.7261 30.2342 36.1127 30.4184 36.1127 30.6026C36.1127 30.6026 36.1127 31.5237 35.9194 32.4448Z" fill="#FAFAFA"/>
<path d="M11.0393 43.5211L10.9485 43.7859L11.214 43.6974L18.4203 41.2954C21.0505 42.901 23.8833 43.7045 26.9163 43.7045C35.8751 43.7045 43.2045 36.3751 43.2045 27.4163C43.2045 18.4574 35.8751 11.1281 26.9163 11.1281C17.9574 11.1281 10.6281 18.4574 10.6281 27.4163C10.6281 30.6506 11.6312 33.8845 13.4391 36.5216L11.0393 43.5211ZM18.9033 38.7992L18.853 38.774L18.7994 38.791L14.6177 40.1216L15.9447 36.1406L15.9717 36.0594L15.9112 35.9989L15.5172 35.6049C13.9193 33.2039 12.9237 30.4081 12.9237 27.4163C12.9237 19.6197 19.1197 13.4237 26.9163 13.4237C34.7127 13.4237 40.9089 19.6197 40.9089 27.4163C40.9089 35.2127 34.7127 41.4089 26.9163 41.4089C24.1173 41.4089 21.5219 40.6094 19.3266 39.0128L19.3173 39.0062L19.3071 39.0011L18.9033 38.7992Z" fill="white" stroke="white" stroke-width="0.276923"/>
</g>
<defs>
<clipPath id="clip0_1_198">
<rect width="54" height="54" fill="white" transform="translate(0 0.5)"/>
</clipPath>
</defs>
</svg>
